<svg xmlns="http://www.w3.org/2000/svg" width="45.603" height="45.603" viewBox="0 0 45.603 45.603">
  <path id="Icon_ionic-ios-happy" data-name="Icon ionic-ios-happy" d="M26.177,3.375a22.8,22.8,0,1,0,22.8,22.8A22.8,22.8,0,0,0,26.177,3.375Zm7.893,16.663a2.631,2.631,0,1,1-2.631,2.631A2.625,2.625,0,0,1,34.069,20.038Zm-15.786,0a2.631,2.631,0,1,1-2.631,2.631A2.625,2.625,0,0,1,18.284,20.038Zm7.893,18.526a10.763,10.763,0,0,1-10.326-7.75.881.881,0,0,1,.844-1.129H35.648a.882.882,0,0,1,.844,1.129A10.74,10.74,0,0,1,26.177,38.564Z" transform="translate(-3.375 -3.375)" fill="#f6ff0f"/>
</svg>
