<svg xmlns="http://www.w3.org/2000/svg" width="83.681" height="62.76" viewBox="0 0 83.681 62.76">
  <path id="Icon_awesome-image" data-name="Icon awesome-image" d="M75.836,67.261H7.845A7.845,7.845,0,0,1,0,59.415V12.345A7.845,7.845,0,0,1,7.845,4.5H75.836a7.845,7.845,0,0,1,7.845,7.845v47.07A7.845,7.845,0,0,1,75.836,67.261ZM18.305,13.653a9.153,9.153,0,1,0,9.153,9.153A9.153,9.153,0,0,0,18.305,13.653ZM10.46,56.8H73.221V38.5l-14.3-14.3a1.961,1.961,0,0,0-2.774,0L34,46.34l-9.073-9.073a1.961,1.961,0,0,0-2.774,0L10.46,48.955Z" transform="translate(0 -4.5)" fill="#556583"/>
</svg>
