<svg xmlns="http://www.w3.org/2000/svg" width="14.022" height="18.697" viewBox="0 0 14.022 18.697">
  <path id="Icon_awesome-file-invoice-dollar" data-name="Icon awesome-file-invoice-dollar" d="M13.767,3.834,10.192.256A.876.876,0,0,0,9.571,0H9.348V4.674h4.674V4.451A.874.874,0,0,0,13.767,3.834ZM8.18,4.966V0H.876A.874.874,0,0,0,0,.876V17.82a.874.874,0,0,0,.876.876h12.27a.874.874,0,0,0,.876-.876V5.843H9.056A.879.879,0,0,1,8.18,4.966ZM2.337,2.629a.292.292,0,0,1,.292-.292H5.551a.292.292,0,0,1,.292.292v.584a.292.292,0,0,1-.292.292H2.629a.292.292,0,0,1-.292-.292Zm0,2.921V4.966a.292.292,0,0,1,.292-.292H5.551a.292.292,0,0,1,.292.292v.584a.292.292,0,0,1-.292.292H2.629A.292.292,0,0,1,2.337,5.551ZM7.6,15.187v.881a.292.292,0,0,1-.292.292H6.719a.292.292,0,0,1-.292-.292V15.18a2.091,2.091,0,0,1-1.146-.414.293.293,0,0,1-.021-.443l.429-.409a.3.3,0,0,1,.37-.027.879.879,0,0,0,.468.136H7.554a.459.459,0,0,0,.431-.482.477.477,0,0,0-.32-.465l-1.643-.493A1.653,1.653,0,0,1,4.868,11,1.626,1.626,0,0,1,6.427,9.353V8.472a.292.292,0,0,1,.292-.292H7.3a.292.292,0,0,1,.292.292v.887a2.088,2.088,0,0,1,1.146.414.293.293,0,0,1,.021.443l-.429.409a.3.3,0,0,1-.37.027.876.876,0,0,0-.468-.136H6.468A.459.459,0,0,0,6.037,11a.477.477,0,0,0,.32.465L8,11.956a1.653,1.653,0,0,1,1.153,1.584A1.626,1.626,0,0,1,7.6,15.187Z" fill="#4d565c"/>
</svg>
