<svg xmlns="http://www.w3.org/2000/svg" width="16.296" height="18.625" viewBox="0 0 16.296 18.625">
  <path id="Icon_awesome-calendar-alt" data-name="Icon awesome-calendar-alt" d="M0,16.878a1.746,1.746,0,0,0,1.746,1.746h12.8A1.746,1.746,0,0,0,16.3,16.878V6.984H0Zm11.64-7.13a.438.438,0,0,1,.437-.437h1.455a.438.438,0,0,1,.437.437V11.2a.438.438,0,0,1-.437.437H12.077a.438.438,0,0,1-.437-.437Zm0,4.656a.438.438,0,0,1,.437-.437h1.455a.438.438,0,0,1,.437.437V15.86a.438.438,0,0,1-.437.437H12.077a.438.438,0,0,1-.437-.437ZM6.984,9.749a.438.438,0,0,1,.437-.437H8.876a.438.438,0,0,1,.437.437V11.2a.438.438,0,0,1-.437.437H7.421a.438.438,0,0,1-.437-.437Zm0,4.656a.438.438,0,0,1,.437-.437H8.876a.438.438,0,0,1,.437.437V15.86a.438.438,0,0,1-.437.437H7.421a.438.438,0,0,1-.437-.437ZM2.328,9.749a.438.438,0,0,1,.437-.437H4.22a.438.438,0,0,1,.437.437V11.2a.438.438,0,0,1-.437.437H2.765a.438.438,0,0,1-.437-.437Zm0,4.656a.438.438,0,0,1,.437-.437H4.22a.438.438,0,0,1,.437.437V15.86a.438.438,0,0,1-.437.437H2.765a.438.438,0,0,1-.437-.437ZM14.55,2.328H12.8V.582A.584.584,0,0,0,12.222,0H11.058a.584.584,0,0,0-.582.582V2.328H5.82V.582A.584.584,0,0,0,5.238,0H4.074a.584.584,0,0,0-.582.582V2.328H1.746A1.746,1.746,0,0,0,0,4.074V5.82H16.3V4.074A1.746,1.746,0,0,0,14.55,2.328Z" fill="#111d35"/>
</svg>
