<svg xmlns="http://www.w3.org/2000/svg" width="26.811" height="21.776" viewBox="0 0 26.811 21.776">
  <path id="Icon_awesome-twitter" data-name="Icon awesome-twitter" d="M24.055,8.808c.017.238.017.476.017.715A15.527,15.527,0,0,1,8.438,25.157,15.528,15.528,0,0,1,0,22.69a11.367,11.367,0,0,0,1.327.068A11,11,0,0,0,8.149,20.41,5.5,5.5,0,0,1,3.011,16.6a6.929,6.929,0,0,0,1.038.085A5.812,5.812,0,0,0,5.495,16.5,5.5,5.5,0,0,1,1.089,11.1v-.068a5.534,5.534,0,0,0,2.484.7,5.5,5.5,0,0,1-1.7-7.349,15.619,15.619,0,0,0,11.33,5.75,6.2,6.2,0,0,1-.136-1.259,5.5,5.5,0,0,1,9.51-3.76,10.819,10.819,0,0,0,3.488-1.327,5.48,5.48,0,0,1-2.416,3.028,11.016,11.016,0,0,0,3.164-.851,11.812,11.812,0,0,1-2.756,2.841Z" transform="translate(0 -3.381)" fill="#fff"/>
</svg>
