<svg xmlns="http://www.w3.org/2000/svg" width="28.599" height="20.109" viewBox="0 0 28.599 20.109">
  <path id="Icon_awesome-youtube" data-name="Icon awesome-youtube" d="M29.051,7.646A3.593,3.593,0,0,0,26.523,5.1c-2.23-.6-11.173-.6-11.173-.6s-8.943,0-11.173.6A3.594,3.594,0,0,0,1.648,7.646a37.7,37.7,0,0,0-.6,6.928,37.7,37.7,0,0,0,.6,6.928,3.54,3.54,0,0,0,2.528,2.5c2.23.6,11.173.6,11.173.6s8.943,0,11.173-.6a3.54,3.54,0,0,0,2.528-2.5,37.7,37.7,0,0,0,.6-6.928,37.7,37.7,0,0,0-.6-6.928ZM12.425,18.827v-8.5L19.9,14.575l-7.475,4.252Z" transform="translate(-1.05 -4.5)" fill="#fff"/>
</svg>
