<svg xmlns="http://www.w3.org/2000/svg" width="23.46" height="23.459" viewBox="0 0 23.46 23.459">
  <path id="Icon_awesome-linkedin-in" data-name="Icon awesome-linkedin-in" d="M5.251,23.46H.388V7.8H5.251ZM2.817,5.661A2.83,2.83,0,1,1,5.634,2.817,2.841,2.841,0,0,1,2.817,5.661Zm20.638,17.8H18.6V15.836c0-1.817-.037-4.147-2.529-4.147-2.529,0-2.916,1.974-2.916,4.016V23.46H8.3V7.8h4.665V9.934h.068a5.111,5.111,0,0,1,4.6-2.529c4.922,0,5.827,3.241,5.827,7.452v8.6Z" transform="translate(0 -0.001)" fill="#fff"/>
</svg>
