<svg id="Icon_ionic-ios-volume-low" data-name="Icon ionic-ios-volume-low" xmlns="http://www.w3.org/2000/svg" width="19.859" height="17.377" viewBox="0 0 19.859 17.377">
  <path id="Path_73" data-name="Path 73" d="M20.706,10.249a1.2,1.2,0,0,0-.535-.124,1.243,1.243,0,0,0-.776.272l-5.058,4.073h-4.1A1.245,1.245,0,0,0,9,15.71v6.206a1.245,1.245,0,0,0,1.241,1.241h4.1L19.4,27.23a1.259,1.259,0,0,0,.776.272,1.2,1.2,0,0,0,.535-.124,1.241,1.241,0,0,0,.706-1.117V11.366A1.224,1.224,0,0,0,20.706,10.249Z" transform="translate(-9 -10.125)" fill="#fff"/>
  <path id="Path_74" data-name="Path 74" d="M25.066,12.865a.913.913,0,0,0-1.3-.008.939.939,0,0,0-.008,1.319,6.227,6.227,0,0,1,1.769,4.391h0a6.254,6.254,0,0,1-1.769,4.391.939.939,0,0,0,.008,1.319.912.912,0,0,0,.644.272.923.923,0,0,0,.659-.279,8.1,8.1,0,0,0,2.3-5.694h-.016A8.079,8.079,0,0,0,25.066,12.865Z" transform="translate(-7.503 -9.871)" fill="#fff"/>
</svg>
