<svg id="SvgjsSvg1006" width="288" height="288" xmlns="http://www.w3.org/2000/svg" version="1.1" xmlns:xlink="http://www.w3.org/1999/xlink" xmlns:svgjs="http://svgjs.com/svgjs"><defs id="SvgjsDefs1007"></defs><g id="SvgjsG1008" transform="matrix(1,0,0,1,0,0)"><svg xmlns="http://www.w3.org/2000/svg" color="#fff" enable-background="new 0 0 512 512" viewBox="0 0 512 512" width="288" height="288"><path stroke="#ffffff" d="M492 236H20c-11.046 0-20 8.954-20 20 0 11.046 8.954 20 20 20h472c11.046 0 20-8.954 20-20S503.046 236 492 236zM492 76H20C8.954 76 0 84.954 0 96s8.954 20 20 20h472c11.046 0 20-8.954 20-20S503.046 76 492 76zM492 396H20c-11.046 0-20 8.954-20 20 0 11.046 8.954 20 20 20h472c11.046 0 20-8.954 20-20C512 404.954 503.046 396 492 396z" fill="#ffffff" class="color000 svgShape colorStrokeFFF svgStroke"></path></svg></g></svg>