<svg xmlns="http://www.w3.org/2000/svg" width="46.936" height="46.936" viewBox="0 0 46.936 46.936"><defs><style>.a{fill:#19c119;fill-rule:evenodd;}</style></defs><path class="a" d="M14.517,6.268a8.994,8.994,0,0,0,5.119-2.121,8.994,8.994,0,0,1,11.664,0,8.994,8.994,0,0,0,5.119,2.121,8.994,8.994,0,0,1,8.249,8.249,8.981,8.981,0,0,0,2.121,5.119,8.994,8.994,0,0,1,0,11.664,8.994,8.994,0,0,0-2.121,5.119,8.994,8.994,0,0,1-8.249,8.249A8.994,8.994,0,0,0,31.3,46.789a8.994,8.994,0,0,1-11.664,0,8.994,8.994,0,0,0-5.119-2.121,8.994,8.994,0,0,1-8.249-8.249A8.994,8.994,0,0,0,4.147,31.3a8.994,8.994,0,0,1,0-11.664,8.994,8.994,0,0,0,2.121-5.119,8.994,8.994,0,0,1,8.249-8.249ZM36.343,21.675a2.933,2.933,0,1,0-4.148-4.148l-9.66,9.66-3.793-3.793a2.933,2.933,0,1,0-4.148,4.148l5.867,5.867a2.934,2.934,0,0,0,4.148,0L36.343,21.675Z" transform="translate(-2 -2)"/></svg>